<svg xmlns="http://www.w3.org/2000/svg" viewBox="0 0 800 480" fill="none">
  <defs>
    <linearGradient id="bg" x1="0" y1="0" x2="800" y2="480" gradientUnits="userSpaceOnUse">
      <stop stop-color="#FF7E5F"/>
      <stop offset="1" stop-color="#FEB47B"/>
    </linearGradient>
    <linearGradient id="phone" x1="280" y1="60" x2="520" y2="420" gradientUnits="userSpaceOnUse">
      <stop stop-color="#1c1c1e"/>
      <stop offset="1" stop-color="#000"/>
    </linearGradient>
  </defs>
  <rect width="800" height="480" fill="url(#bg)"/>
  <circle cx="680" cy="80" r="120" fill="white" fill-opacity="0.12"/>
  <circle cx="100" cy="400" r="80" fill="white" fill-opacity="0.08"/>
  <rect x="290" y="50" width="220" height="380" rx="36" fill="url(#phone)" stroke="#3a3a3c" stroke-width="3"/>
  <rect x="305" y="75" width="190" height="330" rx="24" fill="#0a0a0f"/>
  <text x="320" y="98" fill="white" font-family="system-ui,sans-serif" font-size="11" font-weight="600">9:41</text>
  <text x="400" y="145" fill="white" fill-opacity="0.5" font-family="system-ui,sans-serif" font-size="12" text-anchor="middle">Tokyo</text>
  <text x="400" y="195" fill="white" font-family="system-ui,sans-serif" font-size="48" font-weight="300" text-anchor="middle">6:30</text>
  <text x="400" y="218" fill="white" fill-opacity="0.4" font-family="system-ui,sans-serif" font-size="11" text-anchor="middle">AM - JST</text>
  <rect x="320" y="240" width="70" height="28" rx="14" fill="white" fill-opacity="0.15"/>
  <text x="355" y="258" fill="white" font-family="system-ui,sans-serif" font-size="10" text-anchor="middle">NYC</text>
  <rect x="400" y="240" width="80" height="28" rx="14" fill="white" fill-opacity="0.35"/>
  <text x="440" y="258" fill="white" font-family="system-ui,sans-serif" font-size="10" text-anchor="middle">Tokyo</text>
  <rect x="490" y="240" width="70" height="28" rx="14" fill="white" fill-opacity="0.15"/>
  <text x="525" y="258" fill="white" font-family="system-ui,sans-serif" font-size="10" text-anchor="middle">London</text>
  <rect x="320" y="290" width="160" height="70" rx="16" fill="white" fill-opacity="0.1"/>
  <circle cx="348" cy="318" r="10" fill="none" stroke="white" stroke-width="1.5"/>
  <line x1="348" y1="318" x2="348" y2="310" stroke="white" stroke-width="1.5"/>
  <line x1="348" y1="318" x2="354" y2="322" stroke="white" stroke-width="1.5"/>
  <text x="365" y="318" fill="white" font-family="system-ui,sans-serif" font-size="11" font-weight="600">Morning Alarm</text>
  <text x="335" y="340" fill="white" fill-opacity="0.5" font-family="system-ui,sans-serif" font-size="10">Every weekday - 6:30 AM JST</text>
  <circle cx="700" cy="240" r="50" fill="white" fill-opacity="0.1"/>
  <circle cx="700" cy="240" r="30" fill="none" stroke="white" stroke-opacity="0.5" stroke-width="2"/>
  <ellipse cx="700" cy="240" rx="30" ry="12" fill="none" stroke="white" stroke-opacity="0.35" stroke-width="1.5"/>
  <line x1="670" y1="240" x2="730" y2="240" stroke="white" stroke-opacity="0.35" stroke-width="1.5"/>
  <text x="40" y="440" fill="white" fill-opacity="0.7" font-family="system-ui,sans-serif" font-size="14" font-weight="600">Across Alarm</text>
</svg>
