<svg xmlns="http://www.w3.org/2000/svg" viewBox="0 0 800 480" fill="none">
  <defs>
    <linearGradient id="bg" x1="0" y1="0" x2="800" y2="480" gradientUnits="userSpaceOnUse">
      <stop stop-color="#34C759"/>
      <stop offset="1" stop-color="#30D158"/>
    </linearGradient>
  </defs>
  <rect width="800" height="480" fill="url(#bg)"/>
  <circle cx="120" cy="120" r="90" fill="white" fill-opacity="0.1"/>
  <rect x="250" y="40" width="220" height="400" rx="36" fill="#1c1c1e" stroke="#3a3a3c" stroke-width="3"/>
  <rect x="265" y="65" width="190" height="350" rx="24" fill="#0a0f0a"/>
  <text x="360" y="95" fill="white" font-family="system-ui,sans-serif" font-size="11" font-weight="600" text-anchor="middle">HBT</text>
  <text x="360" y="130" fill="white" fill-opacity="0.5" font-family="system-ui,sans-serif" font-size="11" text-anchor="middle">Today</text>
  <circle cx="360" cy="200" r="55" stroke="white" stroke-opacity="0.15" stroke-width="8" fill="none"/>
  <circle cx="360" cy="200" r="55" stroke="#34C759" stroke-width="8" fill="none" stroke-dasharray="260" stroke-dashoffset="65" stroke-linecap="round" transform="rotate(-90 360 200)"/>
  <text x="360" y="205" fill="white" font-family="system-ui,sans-serif" font-size="22" font-weight="700" text-anchor="middle">75%</text>
  <rect x="285" y="270" width="150" height="36" rx="10" fill="white" fill-opacity="0.1"/>
  <circle cx="303" cy="288" r="8" fill="#34C759"/>
  <text x="320" y="292" fill="white" font-family="system-ui,sans-serif" font-size="11">Morning Run</text>
  <rect x="285" y="314" width="150" height="36" rx="10" fill="white" fill-opacity="0.1"/>
  <circle cx="303" cy="332" r="8" fill="#34C759"/>
  <text x="320" y="336" fill="white" font-family="system-ui,sans-serif" font-size="11">Read 30 min</text>
  <rect x="285" y="358" width="150" height="36" rx="10" fill="white" fill-opacity="0.08"/>
  <circle cx="303" cy="376" r="8" stroke="white" stroke-opacity="0.3" fill="none"/>
  <text x="320" y="380" fill="white" fill-opacity="0.5" font-family="system-ui,sans-serif" font-size="11">Meditate</text>
  <rect x="500" y="120" width="240" height="56" rx="28" fill="#1c1c1e" stroke="#34C759" stroke-width="1.5"/>
  <circle cx="530" cy="148" r="14" fill="#34C759" fill-opacity="0.3"/>
  <path d="M524 148 L530 142 L536 148 L530 154 Z" fill="#34C759"/>
  <text x="555" y="142" fill="white" font-family="system-ui,sans-serif" font-size="12" font-weight="600">Morning Run</text>
  <text x="555" y="158" fill="white" fill-opacity="0.5" font-family="system-ui,sans-serif" font-size="10">Streak: 12 days - Live Activity</text>
  <rect x="500" y="200" width="155" height="155" rx="24" fill="#1c1c1e"/>
  <text x="520" y="230" fill="white" fill-opacity="0.5" font-family="system-ui,sans-serif" font-size="10">HABITS</text>
  <text x="520" y="265" fill="white" font-family="system-ui,sans-serif" font-size="28" font-weight="700">4/5</text>
  <rect x="520" y="280" width="115" height="6" rx="3" fill="white" fill-opacity="0.15"/>
  <rect x="520" y="280" width="92" height="6" rx="3" fill="#34C759"/>
  <text x="520" y="310" fill="white" fill-opacity="0.6" font-family="system-ui,sans-serif" font-size="10">12 day streak</text>
  <text x="40" y="440" fill="white" fill-opacity="0.8" font-family="system-ui,sans-serif" font-size="14" font-weight="600">HBT - Habit Tracker</text>
</svg>
