<svg xmlns="http://www.w3.org/2000/svg" viewBox="0 0 390 844" fill="none">
  <defs>
    <linearGradient id="wg" x1="0" y1="0" x2="390" y2="844">
      <stop stop-color="#34C759" stop-opacity="0.3"/>
      <stop offset="1" stop-color="#0a84ff" stop-opacity="0.2"/>
    </linearGradient>
  </defs>
  <rect width="390" height="844" fill="#1a1a2e"/>
  <rect width="390" height="844" fill="url(#wg)" opacity="0.5"/>
  <text x="195" y="100" fill="white" fill-opacity="0.5" font-family="system-ui,sans-serif" font-size="13" text-anchor="middle">Home Screen</text>
  <rect x="24" y="130" width="342" height="160" rx="24" fill="#1c1c1e" fill-opacity="0.95"/>
  <text x="44" y="162" fill="white" fill-opacity="0.45" font-family="system-ui,sans-serif" font-size="11" font-weight="600">HBT</text>
  <text x="44" y="200" fill="white" font-family="system-ui,sans-serif" font-size="42" font-weight="700">4 / 5</text>
  <text x="44" y="228" fill="white" fill-opacity="0.5" font-family="system-ui,sans-serif" font-size="13">habits completed today</text>
  <rect x="44" y="244" width="302" height="8" rx="4" fill="white" fill-opacity="0.12"/>
  <rect x="44" y="244" width="242" height="8" rx="4" fill="#34C759"/>
  <text x="44" y="276" fill="#FF9F0A" font-family="system-ui,sans-serif" font-size="13">12 day streak</text>
  <rect x="24" y="310" width="160" height="160" rx="24" fill="#1c1c1e" fill-opacity="0.95"/>
  <text x="44" y="342" fill="white" fill-opacity="0.45" font-family="system-ui,sans-serif" font-size="10">HBT</text>
  <circle cx="104" cy="400" r="40" stroke="white" stroke-opacity="0.12" stroke-width="8" fill="none"/>
  <circle cx="104" cy="400" r="40" stroke="#34C759" stroke-width="8" fill="none" stroke-dasharray="188" stroke-dashoffset="47" stroke-linecap="round" transform="rotate(-90 104 400)"/>
  <text x="104" y="406" fill="white" font-family="system-ui,sans-serif" font-size="18" font-weight="700" text-anchor="middle">75%</text>
  <rect x="204" y="310" width="60" height="60" rx="14" fill="#34C759" fill-opacity="0.8"/>
  <text x="234" y="348" fill="white" font-family="system-ui,sans-serif" font-size="11" font-weight="700" text-anchor="middle">HBT</text>
  <rect x="278" y="310" width="60" height="60" rx="14" fill="white" fill-opacity="0.15"/>
  <rect x="24" y="390" width="60" height="60" rx="14" fill="white" fill-opacity="0.15"/>
  <rect x="98" y="390" width="60" height="60" rx="14" fill="white" fill-opacity="0.15"/>
  <text x="195" y="520" fill="white" fill-opacity="0.35" font-family="system-ui,sans-serif" font-size="13" text-anchor="middle">Home Screen &amp; Lock Screen widgets</text>
  <text x="195" y="542" fill="white" fill-opacity="0.35" font-family="system-ui,sans-serif" font-size="13" text-anchor="middle">for at-a-glance habit tracking</text>
</svg>
